<?xml version="1.0" encoding="UTF-8"?>
<svg id="Layer_1" xmlns="http://www.w3.org/2000/svg" version="1.1" xmlns:xlink="http://www.w3.org/1999/xlink" viewBox="0 0 199 193">
  <!-- Generator: Adobe Illustrator 30.4.0, SVG Export Plug-In . SVG Version: 2.1.4 Build 226)  -->
  <defs>
    <style>
      .st0 {
        fill: #fff;
      }

      .st0, .st1, .st2, .st3 {
        fill-rule: evenodd;
      }

      .st1 {
        fill: #6d6e70;
      }

      .st2 {
        fill: url(#linear-gradient);
      }

      .st3 {
        fill: #00adee;
      }
    </style>
    <linearGradient id="linear-gradient" x1="191.45" y1="176.32" x2="198.51" y2="182.62" gradientTransform="translate(0 194) scale(1 -1)" gradientUnits="userSpaceOnUse">
      <stop offset="0" stop-color="#ffca05"/>
      <stop offset="1" stop-color="#f9a51a"/>
    </linearGradient>
  </defs>
  <path class="st3" d="M19.01,157.36h160.04c10.45,0,19.01-8.55,19.01-19.01V44.12l-33.81-34.52H19.01C8.57,9.6,0,18.17,0,28.61v109.75c0,10.44,8.55,19.01,19.01,19.01h0Z"/>
  <path class="st0" d="M155.3,115.98h9.45c2.14,0,3.95-.75,5.41-2.23,1.47-1.48,2.2-3.28,2.2-5.38s-.74-3.96-2.2-5.44c-1.47-1.48-3.28-2.23-5.41-2.23h-9.45v15.29h0ZM75.72,24.33v4.42h-2.87c.14.08.27.16.4.24,1.18.77,2.06,1.78,2.63,3.02l20.87,49.77h-12.71l-4.11-10.38h-21.75l-4.05,10.38h-12.72l20.97-49.82c.47-1.18,1.26-2.29,2.56-2.95l10.78-4.68ZM131.23,71.38c-4.25,0-8.45.02-12.7.02-4.74,0-8.71-1.53-11.9-4.58-3.2-3.06-4.8-6.95-4.8-11.69s1.6-8.58,4.8-11.66c3.2-3.08,7.17-4.62,11.9-4.62h5.92l3.48-10.38h-9.4c-8.01,0-14.78,2.49-20.33,7.46-5.54,4.97-8.31,11.37-8.31,19.19s2.76,13.92,8.28,19.01c5.52,5.09,12.31,7.64,20.36,7.64h24.43V28.47h-11.73v42.9h0ZM18.88,81.78h11.51v-21.18h16.67l4.52-10.16h-21.19v-12.01h25.49l4.87-9.95H25.91c-1.94,0-3.6.62-4.98,1.85-1.37,1.23-2.06,2.72-2.06,4.48v46.98h0ZM61.54,61.52h15.32l-7.64-18.39-7.68,18.39ZM179.18,81.78h-26.3c-1.94,0-3.6-.62-4.98-1.85-1.37-1.23-2.06-2.72-2.06-4.48V28.47h11.8v42.93h21.53v10.38h0ZM25.87,131.67h5.67c4.54,0,8.34-1.45,11.4-4.35,3.05-2.9,4.58-6.59,4.58-11.05s-1.53-8.15-4.58-11.05c-3.05-2.9-6.85-4.35-11.4-4.35h-5.67v30.81h0ZM31.54,137.74h-8.36c-1.18,0-2.2-.38-3.03-1.15-.84-.76-1.26-1.68-1.26-2.75v-35.16c0-1.07.42-1.99,1.26-2.75s1.85-1.15,3.04-1.15h8.36c6.45,0,11.91,2.01,16.38,6.01,2.46,2.21,4.24,4.76,5.35,7.66v-9.78c0-1.07.42-1.99,1.26-2.75.84-.76,1.85-1.15,3.04-1.15h23.82l-2.8,5.84h-18.55v12.71h18.64c.6-4.99,2.78-9.17,6.53-12.54,4.46-4,9.93-6.01,16.38-6.01h8.9l-2.8,6.24h-6.09c-4.57,0-8.39,1.44-11.42,4.29-3.03,2.86-4.55,6.51-4.55,10.94s1.53,8.08,4.58,10.94c3.05,2.86,6.85,4.29,11.39,4.29h6.09l2.8,6.24h-8.9c-6.52,0-12.01-2.05-16.43-6.16-3.7-3.43-5.86-7.56-6.46-12.4h-18.65v12.71h18.55l2.8,5.84h-23.82c-1.18,0-2.2-.38-3.04-1.15-.84-.76-1.26-1.68-1.26-2.75v-9.92c-1.1,2.86-2.86,5.41-5.29,7.66-4.43,4.1-9.91,6.16-16.43,6.16l-.03.04ZM116.85,104.98c-2.89,3.08-4.35,6.85-4.35,11.28s1.46,8.19,4.38,11.28c2.92,3.09,6.52,4.64,10.79,4.64s7.86-1.55,10.76-4.64c2.9-3.09,4.35-6.85,4.35-11.28s-1.45-8.19-4.35-11.28c-2.9-3.09-6.49-4.64-10.76-4.64s-7.93,1.55-10.82,4.64ZM111.87,132.01c-4.31-4.31-6.47-9.56-6.47-15.75s2.16-11.43,6.47-15.72c4.31-4.29,9.58-6.44,15.8-6.44s11.53,2.15,15.8,6.44c2.31,2.32,4,4.92,5.06,7.8v-9.66c0-1.07.42-1.99,1.26-2.75.84-.76,1.85-1.15,3.04-1.15h12.25c3.97,0,7.31,1.26,10.02,3.78,2.71,2.52,4.07,5.69,4.07,9.51,0,2.9-.8,5.45-2.41,7.64-1.6,2.19-3.74,3.75-6.41,4.67l11.41,17.35h-7.51l-10.7-15.92h-8.26v15.92h-6.76v-13.55c-1.06,2.88-2.75,5.49-5.06,7.82-4.27,4.31-9.54,6.47-15.8,6.47s-11.5-2.16-15.8-6.47h0Z"/>
  <path class="st2" d="M198.06,44.12c-1.3-12.7-2.48-29.45-7.41-44.12-7.06,11.24-15.13,9.6-26.4,9.6l33.81,34.52Z"/>
  <path class="st1" d="M11.24,188.62h.84c.53,0,.78-.33.62-.84l-2.15-7.15c-.56-2.02-1.39-2.68-3-2.68s-2.41.67-3,2.68l-2.15,7.15c-.15.51.09.84.62.84h.83c.44,0,.71-.21.83-.63l.58-2.07h4.53l.58,2.07c.12.42.4.63.83.63h.04ZM9.29,184.02h-3.46l.9-3.19c.21-.71.41-.92.84-.92s.62.21.83.92l.89,3.19ZM20.37,188.62h4.67c.48,0,.75-.27.75-.75v-.45c0-.48-.27-.75-.75-.75h-4.11c-.67,0-.79-.26-.79-.67v-1.74h3.82c.48,0,.75-.27.75-.74v-.41c0-.48-.27-.74-.75-.74h-3.82v-1.66c0-.42.11-.67.79-.67h3.82c.48,0,.75-.27.75-.75v-.45c0-.48-.27-.75-.75-.75h-4.38c-1.74,0-2.51.64-2.51,2.32v5.88c0,1.68.77,2.32,2.51,2.32h0ZM34.67,178.1h-7.54c-.48,0-.75.27-.75.75v.56c0,.48.27.75.75.75h2.62v7.73c0,.48.27.75.75.75h.82c.48,0,.75-.27.75-.75v-7.73h2.62c.48,0,.75-.27.75-.75v-.56c0-.48-.27-.75-.75-.75h-.02ZM37.42,188.62h.82c.48,0,.75-.27.75-.75v-9.04c0-.48-.27-.75-.75-.75h-.82c-.48,0-.74.27-.74.75v9.04c0,.48.27.75.74.75ZM45.69,188.77c2.95,0,4.93-1.88,4.93-5.41s-1.98-5.41-4.93-5.41-4.93,1.88-4.93,5.41,1.98,5.41,4.93,5.41ZM45.69,186.78c-1.5,0-2.52-.8-2.52-3.42s1.02-3.42,2.52-3.42,2.52.8,2.52,3.42-1.02,3.42-2.52,3.42ZM50.01,191.49l.08-.56c.06-.48-.15-.78-.63-.84l-3.5-.49c-.47-.06-.77.15-.85.62-.08.47.11.78.57.9l3.45.94c.49.14.81-.08.88-.58h0ZM60.81,178.09h-.79c-.48,0-.75.27-.75.75v5.61c0,1.56-.7,2.27-2.43,2.27s-2.43-.7-2.43-2.27v-5.61c0-.48-.27-.75-.75-.75h-.79c-.48,0-.75.27-.75.75v5.48c0,3.01,1.26,4.45,4.71,4.45s4.71-1.44,4.71-4.45v-5.48c0-.48-.27-.75-.74-.75h.01ZM66.03,188.62h4.67c.48,0,.75-.27.75-.75v-.45c0-.48-.27-.75-.75-.75h-4.11c-.67,0-.79-.26-.79-.67v-1.74h3.82c.48,0,.75-.27.75-.74v-.41c0-.48-.27-.74-.75-.74h-3.82v-1.66c0-.42.11-.67.79-.67h3.82c.48,0,.75-.27.75-.75v-.45c0-.48-.27-.75-.75-.75h-4.38c-1.74,0-2.51.64-2.51,2.32v5.88c0,1.68.77,2.32,2.51,2.32h0ZM80.33,178.1h-7.54c-.48,0-.75.27-.75.75v.56c0,.48.27.75.75.75h2.62v7.73c0,.48.27.75.75.75h.82c.48,0,.75-.27.75-.75v-7.73h2.62c.48,0,.75-.27.75-.75v-.56c0-.48-.27-.75-.75-.75h-.02ZM89.36,188.62c-.44,0-.71-.21-.83-.63l-.58-2.07h-4.53l-.58,2.07c-.12.42-.4.63-.83.63h-.83c-.53,0-.78-.33-.62-.84l2.15-7.15c.59-2.01,1.39-2.68,3-2.68s2.44.66,3,2.68l2.15,7.15c.15.51-.09.84-.62.84h-.88ZM87.4,184.02l-.89-3.19c-.21-.71-.41-.92-.83-.92s-.63.21-.84.92l-.9,3.19h3.46ZM98.49,188.62h.8c3.53,0,5.38-1.24,5.38-5.26s-1.85-5.26-5.38-5.26h-.8c-1.73,0-2.52.64-2.52,2.33v5.87c0,1.69.79,2.33,2.52,2.33h0ZM99.77,186.7h-.85c-.56,0-.66-.3-.66-.77v-5.14c0-.47.11-.77.66-.77h.85c1.76,0,2.62.73,2.62,3.34s-.86,3.34-2.62,3.34ZM113.99,188.62h.84c.53,0,.78-.33.62-.84l-2.15-7.15c-.56-2.02-1.39-2.68-3-2.68s-2.41.67-3,2.68l-2.15,7.15c-.15.51.09.84.62.84h.83c.44,0,.71-.21.83-.63l.58-2.07h4.53l.58,2.07c.12.42.4.63.83.63h.04ZM112.04,184.02h-3.46l.9-3.19c.21-.71.41-.92.84-.92s.62.21.83.92l.89,3.19ZM120.72,188.41c3.35.82,6.87.27,6.87-2.73,0-1.51-.87-2.39-2.9-3.25l-.94-.4c-1.03-.41-1.33-.79-1.33-1.26,0-1.06,1.8-1.03,3.74-.71.52.09.83-.16.83-.67v-.33c0-.45-.21-.72-.65-.83-3.28-.76-6.2-.09-6.2,2.58,0,1.34.72,2.24,2.73,3.11l1.01.44c1.13.46,1.42.83,1.42,1.32,0,1.32-2.34,1.32-4.4.94-.52-.1-.83.14-.83.66v.31c0,.44.2.72.64.83h.01ZM137.7,178.09h-.79c-.48,0-.75.27-.75.75v5.61c0,1.56-.7,2.27-2.43,2.27s-2.43-.7-2.43-2.27v-5.61c0-.48-.27-.75-.75-.75h-.79c-.48,0-.75.27-.75.75v5.48c0,3.01,1.26,4.45,4.71,4.45s4.71-1.44,4.71-4.45v-5.48c0-.48-.27-.75-.74-.75h0ZM148.31,188.62h.84c.53,0,.78-.33.62-.84l-2.15-7.15c-.56-2.02-1.39-2.68-3-2.68s-2.41.67-3,2.68l-2.15,7.15c-.15.51.09.84.62.84h.83c.44,0,.71-.21.83-.63l.58-2.07h4.53l.58,2.07c.12.42.4.63.83.63h.04ZM146.36,184.02h-3.46l.9-3.19c.21-.71.41-.92.84-.92s.62.21.83.92l.89,3.19ZM154.47,183.36c0,4.16,2.79,6.19,7.1,5.14.49-.12.72-.42.72-.86v-.54c0-.53-.32-.75-.86-.64-3.38.69-4.55-.38-4.55-3.1s1.17-3.79,4.55-3.1c.54.11.86-.11.86-.64v-.54c0-.44-.2-.73-.64-.83-4.37-1.09-7.18.94-7.18,5.12h0ZM172.04,188.62h.84c.53,0,.78-.33.62-.84l-2.15-7.15c-.56-2.02-1.39-2.68-3-2.68s-2.41.67-3,2.68l-2.15,7.15c-.15.51.09.84.62.84h.83c.44,0,.71-.21.83-.63l.58-2.07h4.53l.58,2.07c.12.42.4.63.83.63h.04ZM170.09,184.02h-3.46l.9-3.19c.21-.71.41-.92.84-.92s.62.21.83.92l.89,3.19ZM174.96,188.41c3.35.82,6.87.27,6.87-2.73,0-1.51-.87-2.39-2.9-3.25l-.94-.4c-1.03-.41-1.33-.79-1.33-1.26,0-1.06,1.8-1.03,3.74-.71.52.09.83-.16.83-.67v-.33c0-.45-.21-.72-.65-.83-3.28-.76-6.2-.09-6.2,2.58,0,1.34.72,2.24,2.73,3.11l1.01.44c1.13.46,1.42.83,1.42,1.32,0,1.32-2.34,1.32-4.4.94-.52-.1-.83.14-.83.66v.31c0,.44.2.72.64.83h.01ZM191.45,188.62h.84c.53,0,.78-.33.62-.84l-2.15-7.15c-.56-2.02-1.39-2.68-3-2.68s-2.41.67-3,2.68l-2.15,7.15c-.15.51.09.84.62.84h.83c.44,0,.71-.21.83-.63l.58-2.07h4.53l.58,2.07c.12.42.4.63.83.63h.04ZM189.49,184.02h-3.46l.9-3.19c.21-.71.41-.92.84-.92s.62.21.83.92l.89,3.19Z"/>
  <path class="st1" d="M194.93,186.91c.5,0,.9.4.9.9s-.4.9-.9.9-.9-.4-.9-.9.4-.9.9-.9Z"/>
</svg>